<svg width="112" height="22" fill="none" xmlns="http://www.w3.org/2000/svg"><path d="M11.8.224h3.744V17H11.8L3.808 6.488V17H.064V.224h3.504l8.232 10.8V.224zM30.39 17h-3.385v-1.56c-.928 1.168-2.08 1.752-3.456 1.752-1.36 0-2.504-.392-3.432-1.176-.928-.8-1.392-1.856-1.392-3.168 0-1.328.48-2.32 1.44-2.976.96-.656 2.272-.984 3.936-.984h2.688v-.072c0-1.376-.728-2.064-2.184-2.064-.624 0-1.288.128-1.992.384-.688.24-1.272.544-1.752.912L19.253 5.72c1.696-1.232 3.632-1.848 5.808-1.848 1.568 0 2.848.392 3.84 1.176.992.784 1.488 2.024 1.488 3.72V17zm-3.625-4.92v-.624H24.51c-1.44 0-2.16.448-2.16 1.344 0 .464.168.824.504 1.08.352.24.848.36 1.488.36s1.2-.192 1.68-.576c.496-.4.744-.928.744-1.584zm16.726.912c0 1.264-.472 2.28-1.416 3.048-.928.768-2.112 1.152-3.552 1.152-.96 0-1.96-.168-3-.504a9.044 9.044 0 01-2.808-1.536l1.584-2.256c1.344 1.04 2.776 1.56 4.296 1.56.464 0 .832-.088 1.104-.264.272-.192.408-.44.408-.744s-.192-.584-.576-.84c-.368-.256-.912-.496-1.632-.72a21.218 21.218 0 01-1.632-.576 9.599 9.599 0 01-1.272-.696c-.976-.608-1.464-1.504-1.464-2.688 0-1.2.48-2.176 1.44-2.928.96-.752 2.2-1.128 3.72-1.128s3.04.512 4.56 1.536l-1.344 2.4c-1.12-.768-2.24-1.152-3.36-1.152-1.104 0-1.656.304-1.656.912 0 .336.176.6.528.792.352.192.936.416 1.752.672.816.256 1.392.456 1.728.6.352.128.768.336 1.248.624.896.544 1.344 1.456 1.344 2.736zm12.569 0c0 1.264-.472 2.28-1.416 3.048-.928.768-2.112 1.152-3.552 1.152-.96 0-1.96-.168-3-.504a9.044 9.044 0 01-2.808-1.536l1.584-2.256c1.344 1.04 2.776 1.56 4.296 1.56.464 0 .832-.088 1.104-.264.272-.192.408-.44.408-.744s-.192-.584-.576-.84c-.368-.256-.912-.496-1.632-.72a21.218 21.218 0 01-1.632-.576 9.599 9.599 0 01-1.272-.696c-.976-.608-1.464-1.504-1.464-2.688 0-1.2.48-2.176 1.44-2.928.96-.752 2.2-1.128 3.72-1.128s3.04.512 4.56 1.536l-1.344 2.4c-1.12-.768-2.24-1.152-3.36-1.152-1.104 0-1.656.304-1.656.912 0 .336.176.6.528.792.352.192.936.416 1.752.672.816.256 1.392.456 1.728.6.352.128.768.336 1.248.624.896.544 1.344 1.456 1.344 2.736zM65.1 14c1.2 0 2.28-.6 3.24-1.8l2.137 2.4c-1.664 1.728-3.464 2.592-5.4 2.592-1.936 0-3.576-.608-4.92-1.824-1.328-1.232-1.992-2.832-1.992-4.8 0-1.984.672-3.592 2.016-4.824 1.36-1.248 2.968-1.872 4.824-1.872.928 0 1.864.192 2.808.576.96.384 1.8.952 2.52 1.704L68.46 8.6a4.229 4.229 0 00-1.536-1.152 4.223 4.223 0 00-1.776-.408c-.944 0-1.76.312-2.448.936-.672.608-1.008 1.464-1.008 2.568 0 1.088.336 1.936 1.008 2.544a3.513 3.513 0 002.4.912zm10.547-3.456c0 1.056.295 1.92.887 2.592.608.656 1.376.984 2.304.984.945 0 1.713-.328 2.305-.984.608-.672.912-1.536.912-2.592s-.305-1.92-.913-2.592c-.591-.672-1.36-1.008-2.303-1.008-.928 0-1.697.336-2.305 1.008-.592.672-.888 1.536-.888 2.592zm10.031 0c0 1.872-.647 3.448-1.944 4.728-1.295 1.28-2.927 1.92-4.895 1.92-1.953 0-3.576-.64-4.873-1.92-1.295-1.28-1.944-2.856-1.944-4.728 0-1.872.648-3.448 1.944-4.728 1.297-1.296 2.92-1.944 4.873-1.944 1.968 0 3.6.648 4.895 1.944 1.297 1.28 1.945 2.856 1.945 4.728zm9.566-3.288c-1.072 0-1.872.384-2.4 1.152-.528.752-.792 1.752-.792 3V17h-3.6V4.088h3.6v1.704a6.1 6.1 0 011.728-1.344c.704-.368 1.416-.56 2.136-.576l.024 3.384h-.696zm10.688-3.384c1.504 0 2.84.632 4.008 1.896 1.184 1.248 1.776 2.824 1.776 4.728s-.592 3.496-1.776 4.776c-1.168 1.28-2.544 1.92-4.128 1.92-1.568 0-2.832-.632-3.792-1.896v6.36h-3.6V4.088h3.6v1.44c1.104-1.104 2.408-1.656 3.912-1.656zm-3.96 6.696c0 1.04.288 1.896.864 2.568.592.656 1.304.984 2.136.984.832 0 1.56-.328 2.184-.984.624-.672.936-1.528.936-2.568s-.304-1.912-.912-2.616c-.608-.704-1.336-1.056-2.184-1.056-.848 0-1.568.352-2.16 1.056-.576.688-.864 1.56-.864 2.616z" fill="#fff"/></svg>